# AST/ASF file generated using VICON BodyLanguage
# -----------------------------------------------
:version 1.10
:name VICON
:units
  mass 1.0
  length 0.45
  angle deg
:documentation
   .ast/.asf automatically generated from VICON data using
   VICON BodyBuilder and BodyLanguage model FoxedUp or BRILLIANT.MOD
:root
   order TX TY TZ RX RY RZ
   axis XYZ
   position 0 0 0  
   orientation 0 0 0 
:bonedata
  begin
     id 1 
     name lhipjoint
     direction 0.682418 -0.694059 0.22932 
     length 2.25561 
     axis 0 0 0  XYZ
  end
  begin
     id 2 
     name lfemur
     direction 0.34202 -0.939693 0  
     length 6.96448  
     axis 0 0 20  XYZ
    dof rx ry rz
    limits (-160.0 20.0)
           (-70.0 70.0)
           (-60.0 70.0)
  end
  begin
     id 3 
     name ltibia
     direction 0.34202 -0.939693 0   
     length 6.88553   
     axis 0 0 20   XYZ
    dof rx
    limits (-10.0 170.0)
  end
  begin
     id 4 
     name lfoot
     direction 0.0723587 -0.198804 0.977364   
     length 1.88518   
     axis -90 7.62852e-016 20   XYZ
    dof rx rz
    limits (-45.0 90.0)
           (-70.0 20.0)
  end
  begin
     id 5 
     name ltoes
     direction 1.53558e-011 -4.21962e-011 1   
     length 0.952124   
     axis -90 7.62852e-016 20   XYZ
    dof rx
    limits (-90.0 20.0)
  end
  begin
     id 6 
     name rhipjoint
     direction -0.657603 -0.71533 0.236348   
     length 2.18854  
     axis 0 0 0  XYZ 
  end
  begin
     id 7 
     name rfemur
     direction -0.34202 -0.939693 0   
     length 6.86686   
     axis 0 0 -20   XYZ
    dof rx ry rz
    limits (-160.0 20.0)
           (-70.0 70.0)
           (-70.0 60.0)
  end
  begin
     id 8 
     name rtibia
     direction -0.34202 -0.939693 0   
     length 6.59503   
     axis 0 0 -20   XYZ
    dof rx
    limits (-10.0 170.0)
 end
 begin
     id 9 
     name rfoot
     direction -0.101977 -0.280179 0.954516   
     length 1.93723  
     axis -90 -7.62852e-016 -20   XYZ
    dof rx rz
    limits (-45.0 90.0)
           (-20.0 70.0)
  end
  begin
     id 10 
     name rtoes
     direction -1.53564e-011 -4.21897e-011 1   
     length 0.970315   
     axis -90 -7.62852e-016 -20   XYZ
    dof rx
    limits (-90.0 20.0)
  end
  begin
     id 11 
     name lowerback
     direction -0.0339559 0.999421 -0.00235966   
     length 1.88543   
     axis 0 0 0   XYZ
    dof rx ry rz
    limits (-20.0 45.0)
           (-30.0 30.0)
           (-30.0 30.0)
  end
  begin
     id 12 
     name upperback
     direction 0.00401003 0.999739 0.0224689   
     length 1.8856   
     axis 0 0 0   XYZ
    dof rx ry rz
    limits (-20.0 45.0)
           (-30.0 30.0)
           (-30.0 30.0)
  end
  begin
     id 13 
     name thorax
     direction 0.0198619 0.999546 0.0226536   
     length 1.88352   
     axis 0 0 0   XYZ
    dof rx ry rz
    limits (-20.0 45.0)
           (-30.0 30.0)
           (-30.0 30.0)
  end
  begin
     id 14 
     name lowerneck
     direction -0.0461848 0.998632 0.0245198   
     length 1.34895   
     axis 0 0 0   XYZ
    dof rx ry rz
    limits (-20.0 45.0)
           (-30.0 30.0)
           (-30.0 30.0)
  end
  begin
     id 15 
     name upperneck
     direction -0.0180627 0.994724 -0.100984   
     length 1.35214   
     axis 0 0 0   XYZ
    dof rx ry rz
    limits (-20.0 45.0)
           (-30.0 30.0)
           (-30.0 30.0)
  end
  begin
     id 16
     name head
     direction -0.00374772 0.999293 -0.037403  
     length 1.3568  
     axis 0 0 0   XYZ
    dof rx ry rz
    limits (-20.0 45.0)
           (-30.0 30.0)
           (-30.0 30.0)
  end
  begin
     id 17 
     name lclavicle
     direction 0.971773 0.191119 0.138311  
     length 2.84954  
     axis 0 0 0   XYZ
    dof ry rz
    limits (-20.0 10.0)
           (0.0 20.0)
  end
  begin
     id 18 
     name lhumerus
     direction 1 -4.4897e-011 -2.43761e-027   
     length 4.40919   
     axis 180 -30 -90   XYZ
    dof rx ry rz
    limits (-60.0 90.0)
           (-90.0 90.0)
           (-90.0 90.0)
  end
  begin
     id 19
     name lradius
     direction 1 -4.4896e-011 -9.1621e-027   
     length 3.03857   
     axis 180 -30 -90   XYZ
    dof rx
    limits (-10.0 170.0)
  end
  begin
     id 20
     name lwrist
     direction 1 -4.4896e-011 -1.41363e-026   
     length 1.51928   
     axis 1.07133e-014 90 90   XYZ
    dof ry
    limits (-180.0 0.0)
 end
  begin
     id 21 
     name lhand
     direction 1 -4.48978e-011 -2.82725e-026   
     length 0.523208   
     axis 1.80403e-014 90 90   XYZ
    dof rx rz
    limits (-90.0 90.0)
           (-45.0 45.0)
  end
  begin
     id 22 
     name lfingers
     direction 1 -4.48977e-011 -5.6545e-026   
     length 0.421824   
     axis 3.60806e-014 90 90   XYZ
    dof rx
    limits (0.0 90.0)
  end
  begin
     id 23
     name lthumb
     direction 0.707107 -6.34962e-011 0.707107   
     length 0.605657   
     axis -90 45 2.85299e-015   XYZ
    dof rx rz
    limits (-45.0 45.0)
           (-45.0 45.0)
  end
  begin
     id 24 
     name rclavicle
     direction -0.957247 0.24311 0.156766   
     length 3.12406  
     axis 0 0 0   XYZ 
    dof ry rz
    limits (-10.0 20.0)
           (-20.0 0.0)
  end
  begin
     id 25 
     name rhumerus
     direction -1 -4.48964e-011 -1.70632e-027  
     length 4.61969   
     axis 180 30 90   XYZ
    dof rx ry rz
    limits (-90.0 60.0)
           (-90.0 90.0)
           (-90.0 90.0)
  end
  begin
     id 26 
     name rradius
     direction -1 -4.48966e-011 -6.60395e-027   
     length 3.09382   
     axis 180 30 90   XYZ
    dof rx
    limits (-10.0 170.0)
  end
  begin
     id 27 
     name rwrist
     direction -1 -4.48963e-011 -1.41363e-026   
     length 1.54691   
     axis 1.07133e-014 -90 -90   XYZ
    dof ry
    limits (-180.0 0.0)
  end
  begin
     id 28
     name rhand
     direction -1 -4.49013e-011 -2.82725e-026   
     length 0.500896   
     axis 1.80403e-014 -90 -90   XYZ
    dof rx rz
    limits (-90.0 90.0)
           (-45.0 45.0)
  end
  begin
     id 29
     name rfingers
     direction -1 -4.48902e-011 -5.6545e-026   
     length 0.403835   
     axis 3.60806e-014 -90 -90   XYZ
    dof rx
    limits (0.0 90.0)
  end
  begin
     id 30
     name rthumb
     direction -0.707107 -6.34953e-011 0.707107   
     length 0.579829   
     axis -90 -45 -2.85299e-015   XYZ
    dof rx rz
    limits (-45.0 45.0)
           (-45.0 45.0)
  end
:hierarchy
  begin
    root lhipjoint rhipjoint lowerback
    lhipjoint lfemur
    lfemur ltibia
    ltibia lfoot
    lfoot ltoes
    rhipjoint rfemur
    rfemur rtibia
    rtibia rfoot
    rfoot rtoes
    lowerback upperback
    upperback thorax
    thorax lowerneck lclavicle rclavicle
    lowerneck upperneck
    upperneck head
    lclavicle lhumerus
    lhumerus lradius
    lradius lwrist
    lwrist lhand lthumb
    lhand lfingers
    rclavicle rhumerus
    rhumerus rradius
    rradius rwrist
    rwrist rhand rthumb
    rhand rfingers
  end

#!OML:ASF E:\madness\Project 1\Capture day 1\Session 1\Female1.ASF
:FULLY-SPECIFIED
:DEGREES
658
root 9.71201 15.3134 3.80963 -65.1032 -87.4446 78.499
lowerback -2.17873 -1.96944 -2.22682
upperback -3.7797 -2.65416 1.90794
thorax -2.47549 -1.27263 3.20905
lowerneck -4.17616 3.02919 3.22301
upperneck 31.2746 4.23531 -6.31524
head 10.9456 1.09279 -2.53011
rclavicle 1.35671e-014 -1.03368e-014
rhumerus -65.077 -22.6966 -17.7259
rradius 55.7249
rwrist -1.33607
rhand -12.574 -44.5029
rfingers 7.12502
rthumb 13.5038 -74.0451
lclavicle 1.35671e-014 -1.03368e-014
lhumerus -54.464 16.3155 51.773
lradius 103.97
lwrist -3.00134
lhand -34.3892 -7.62709
lfingers 7.12502
lthumb -7.55519 22.218
rfemur -43.7349 6.83123 18.372
rtibia 47.6989
rfoot -19.905 -6.46983
rtoes 11.2557
lfemur -11.1441 -8.24125 -24.1757
ltibia 34.4776
lfoot -31.3954 10.0169
ltoes 12.149
659
root 9.66016 15.3141 3.77888 -58.0375 -87.3998 71.4036
lowerback -2.01082 -1.92722 -2.14331
upperback -3.97491 -2.60548 1.88166
thorax -2.78003 -1.24537 3.14767
lowerneck -4.14164 3.19809 3.18911
upperneck 31.6192 4.47264 -6.29719
head 11.0875 1.18558 -2.50304
rclavicle -3.67752e-015 1.03368e-014
rhumerus -65.3136 -22.4329 -17.5899
rradius 55.7964
rwrist -1.4979
rhand -13.126 -45.0601
rfingers 7.12502
rthumb 12.9717 -74.6369
lclavicle -3.67752e-015 1.03368e-014
lhumerus -54.6977 15.9826 51.5039
lradius 103.854
lwrist -2.92999
lhand -34.3011 -7.64046
lfingers 7.12502
lthumb -7.47023 22.2076
rfemur -43.4218 6.47524 18.677
rtibia 47.6928
rfoot -20.3852 -6.14325
rtoes 11.0596
lfemur -10.8668 -8.55964 -23.9638
ltibia 34.3111
lfoot -31.4417 9.82044
ltoes 12.8256
660
root 9.60875 15.3141 3.75066 -52.6848 -87.3197 66.0309
lowerback -2.54953 -1.87629 -2.10073
upperback -3.62513 -2.52304 1.81848
thorax -2.1256 -1.21746 3.02832
lowerneck -4.34809 3.30019 3.14238
upperneck 31.5101 4.61637 -6.17391
head 11.0904 1.26936 -2.42698
rclavicle 2.8128e-014 -3.4191e-014
rhumerus -65.2836 -23.1045 -17.5017
rradius 55.698
rwrist -1.32341
rhand -13.0695 -45.1281
rfingers 7.12502
rthumb 13.0262 -74.7013
lclavicle 2.8128e-014 -3.4191e-014
lhumerus -54.2189 16.2128 51.347
lradius 103.739
lwrist -3.12598
lhand -34.1631 -7.78132
lfingers 7.12502
lthumb -7.33698 22.0715
rfemur -43.1447 6.10222 18.9446
rtibia 47.6546
rfoot -20.9045 -5.77707
rtoes 10.684
lfemur -10.5455 -8.82535 -23.8158
ltibia 34.1329
lfoot -31.2444 10.089
ltoes 12.5483
661
root 9.5574 15.3177 3.72321 -46.6733 -87.3386 59.9954
lowerback -2.53822 -1.76261 -1.83619
upperback -3.68932 -2.37626 1.73883
thorax -2.22103 -1.14983 2.80158
lowerneck -3.76083 3.25682 3.8004
upperneck 31.1779 4.61436 -6.74063
head 10.8744 1.3 -2.74909
rclavicle -1.35671e-014 -9.54166e-015
rhumerus -65.5788 -23.0067 -17.4534
rradius 55.8309
rwrist -1.40884
rhand -12.6917 -44.8026
rfingers 7.12502
rthumb 13.3903 -74.3523
lclavicle -1.35671e-014 -9.54166e-015
lhumerus -54.226 16.0554 50.949
lradius 103.685
lwrist -3.29379
lhand -34.0316 -8.0254
lfingers 7.12502
lthumb -7.21005 21.8318
rfemur -42.854 5.74257 19.3545
rtibia 47.5968
rfoot -21.4254 -5.3981
rtoes 10.2203
lfemur -10.2298 -9.03456 -23.5366
ltibia 33.9765
lfoot -30.9624 10.5756
ltoes 11.1224
662
root 9.5071 15.3243 3.69021 -39.6463 -87.2725 52.9601
lowerback -2.53131 -1.70321 -1.71768
upperback -3.77287 -2.30001 1.75339
thorax -2.31963 -1.11324 2.75323
lowerneck -3.9006 3.44532 3.70372
upperneck 31.314 4.92416 -6.78489
head 10.9751 1.42161 -2.71819
rclavicle 2.75814e-014 3.97569e-015
rhumerus -65.6995 -22.7471 -17.5528
rradius 56.1033
rwrist -1.69408
rhand -13.0249 -45.1231
rfingers 7.12502
rthumb 13.0692 -74.6936
lclavicle 2.75814e-014 3.97569e-015
lhumerus -54.3302 15.917 50.7153
lradius 103.573
lwrist -3.29519
lhand -34.1414 -7.91243
lfingers 7.12502
lthumb -7.3161 21.9411
rfemur -42.5339 5.37053 19.7786
rtibia 47.5146
rfoot -21.7929 -5.20876
rtoes 9.60766
lfemur -9.98495 -9.29025 -23.2165
ltibia 33.8434
lfoot -30.8003 10.5625
ltoes 10.3155
663
root 9.4574 15.3284 3.65463 -35.4611 -87.0912 48.7682
lowerback -2.62069 -1.67483 -1.83466
upperback -3.7748 -2.26008 1.77351
thorax -2.26908 -1.09089 2.83695
lowerneck -3.9125 3.60957 3.43952
upperneck 31.4333 5.11672 -6.46631
head 11.0212 1.51251 -2.53579
rclavicle -3.77691e-015 -1.11319e-014
rhumerus -65.6592 -22.5449 -17.7161
rradius 56.2678
rwrist -2.07767
rhand -13.5835 -45.5974
rfingers 7.12502
rthumb 12.5307 -75.2017
lclavicle -3.77691e-015 -1.11319e-014
lhumerus -54.4993 15.7119 50.5562
lradius 103.597
lwrist -3.18457
lhand -34.5482 -7.68453
lfingers 7.12502
lthumb -7.70869 22.155
rfemur -42.1882 5.04704 20.0421
rtibia 47.3988
rfoot -22.1261 -5.0303
rtoes 9.46415
lfemur -9.73587 -9.53479 -23.036
ltibia 33.7538
lfoot -30.6419 10.1112
ltoes 11.3818
664
root 9.40582 15.3322 3.62263 -33.0897 -86.918 46.3493
lowerback -2.69106 -1.6115 -1.90507
upperback -3.72955 -2.17329 1.71756
thorax -2.18792 -1.04735 2.81631
lowerneck -3.87418 3.78123 3.24594
upperneck 31.5027 5.32384 -6.19785
head 11.0407 1.61529 -2.38191
rclavicle -1.2424e-015 -1.19271e-014
rhumerus -65.6788 -22.6531 -17.7044
rradius 56.2534
rwrist -2.15499
rhand -13.8108 -45.6079
rfingers 7.12502
rthumb 12.3115 -75.2254
lclavicle -1.2424e-015 -1.19271e-014
lhumerus -54.492 15.4885 50.3025
lradius 103.646
lwrist -3.12708
lhand -34.7396 -7.45468
lfingers 7.12502
lthumb -7.89345 22.3779
rfemur -41.783 4.70822 20.2508
rtibia 47.2534
rfoot -22.5032 -4.74041
rtoes 9.38461
lfemur -9.44294 -9.73532 -22.9449
ltibia 33.7247
lfoot -30.3885 9.83579
ltoes 12.3334
665
root 9.35375 15.3412 3.5926 -30.165 -86.8434 43.3756
lowerback -2.71551 -1.4749 -1.8089
upperback -3.73499 -1.9924 1.65034
thorax -2.19623 -0.959738 2.69453
lowerneck -3.67973 3.92716 3.09701
upperneck 31.4147 5.52653 -6.06684
head 10.9716 1.71371 -2.28569
rclavicle 2.56432e-014 -1.66979e-014
rhumerus -65.8511 -22.8368 -17.476
rradius 56.162
rwrist -1.92304
rhand -13.9827 -45.4727
rfingers 7.12502
rthumb 12.1458 -75.1001
lclavicle 2.56432e-014 -1.66979e-014
lhumerus -54.3954 15.27 50.0664
lradius 103.558
lwrist -3.20087
lhand -34.4562 -7.46211
lfingers 7.12502
lthumb -7.61989 22.3806
rfemur -41.3719 4.39902 20.547
rtibia 47.0845
rfoot -22.8358 -4.38951
rtoes 8.96858
lfemur -9.22303 -9.81017 -22.7683
ltibia 33.7469
lfoot -30.0773 9.76132
ltoes 12.6695
666
root 9.30176 15.352 3.56214 -27.9844 -86.7799 41.154
lowerback -2.77421 -1.32607 -1.69506
upperback -3.7312 -1.79525 1.55876
thorax -2.17695 -0.865153 2.53678
lowerneck -3.5634 4.08175 3.13147
upperneck 31.3765 5.74768 -6.04417
head 10.9474 1.82764 -2.26012
rclavicle -1.86858e-014 6.36111e-015
rhumerus -66.048 -22.9642 -17.3822
rradius 56.1543
rwrist -1.78137
rhand -13.9511 -45.2671
rfingers 7.12502
rthumb 12.1763 -74.8927
lclavicle -1.86858e-014 6.36111e-015
lhumerus -54.4396 14.9424 49.8129
lradius 103.561
lwrist -3.23983
lhand -34.1287 -7.95107
lfingers 7.12502
lthumb -7.30377 21.9029
rfemur -40.9788 4.1722 20.8031
rtibia 46.898
rfoot -23.1326 -4.02656
rtoes 8.77334
lfemur -9.05538 -9.80845 -22.5934
ltibia 33.8442
lfoot -29.8041 9.64928
ltoes 12.6298
